<?xml version="1.0" encoding="utf-8"?>
<!-- Generator: Adobe Illustrator 28.0.0, SVG Export Plug-In . SVG Version: 6.00 Build 0)  -->
<svg version="1.1" id="Layer_1" xmlns="http://www.w3.org/2000/svg" xmlns:xlink="http://www.w3.org/1999/xlink" x="0px" y="0px"
	 viewBox="0 0 240 240" style="enable-background:new 0 0 240 240;" xml:space="preserve">
<style type="text/css">
	.st0{filter:url(#a);}
	.st1{fill-rule:evenodd;clip-rule:evenodd;}
	.st2{fill-rule:evenodd;clip-rule:evenodd;fill:#D8B884;}
	.st3{fill-rule:evenodd;clip-rule:evenodd;fill:#9BA9CC;}
	.st4{fill-rule:evenodd;clip-rule:evenodd;fill:#273A54;}
	.st5{fill-rule:evenodd;clip-rule:evenodd;fill:#66739D;}
	.st6{filter:url(#Adobe_OpacityMaskFilter);}
	.st7{fill-rule:evenodd;clip-rule:evenodd;fill:#FFFFFF;}
	.st8{mask:url(#d_00000156571982386796499150000011223775511304334998_);fill-rule:evenodd;clip-rule:evenodd;fill:#7485AF;}
	.st9{filter:url(#Adobe_OpacityMaskFilter_00000164497885481531557390000005349283601690258840_);}
	.st10{mask:url(#f_00000138548310984121258470000001824912083671583640_);fill-rule:evenodd;clip-rule:evenodd;fill:#9BA9CC;}
	.st11{fill-rule:evenodd;clip-rule:evenodd;fill:#0D111A;}
	.st12{fill-rule:evenodd;clip-rule:evenodd;fill:#222E49;}
	.st13{fill-rule:evenodd;clip-rule:evenodd;fill:#161A29;}
	.st14{fill:none;}
</style>
<filter  filterUnits="objectBoundingBox" height="200%" id="a" width="200%" x="-50%" y="-50%">
	<feOffset  in="SourceAlpha" result="shadowOffsetOuter1"></feOffset>
	<feGaussianBlur  in="shadowOffsetOuter1" result="shadowBlurOuter1" stdDeviation="10"></feGaussianBlur>
	<feColorMatrix  in="shadowBlurOuter1" values="0 0 0 0 0.4 0 0 0 0 0.450980392 0 0 0 0 0.615686275 0 0 0 1 0"></feColorMatrix>
</filter>
<g>
	<g transform="translate(33 22.19)">
		<g class="st0">
			<path id="b_00000035494819220127353000000010080383661741748628_" class="st1" d="M123.5,70.1V23.2c0-1.4-0.8-2.7-2-3.5L89,1
				c-1.2-0.7-2.8-0.7-4,0L53.3,19.3c-1.2,0.7-2,2-2,3.5v47.3C51.3,70.1,123.5,70.1,123.5,70.1z"/>
		</g>
		<g>
			<path id="b_00000105393413573877699330000003313589758095869856_" class="st2" d="M123.5,70.1V23.2c0-1.4-0.8-2.7-2-3.5L89,1
				c-1.2-0.7-2.8-0.7-4,0L53.3,19.3c-1.2,0.7-2,2-2,3.5v47.3C51.3,70.1,123.5,70.1,123.5,70.1z"/>
		</g>
	</g>
	<path class="st3" d="M156.5,92.3V45.4c0-1.4-0.8-2.7-2-3.5L122,23.2c-1.2-0.7-2.8-0.7-4,0L86.3,41.5c-1.2,0.7-2,2-2,3.5v47.3H156.5
		z"/>
	<path class="st1" d="M44.4,83.6l74.2-42.9c0.8-0.5,1.9-0.5,2.7,0l74.2,42.9c0.8,0.4,1.2,1.3,1.2,2.1v1.6
		c0,53-28.3,102.1-74.2,128.6l-1.2,0.7c-0.8,0.5-1.9,0.5-2.7,0l-1.2-0.7c-45.9-26.5-74.2-75.5-74.2-128.6v-1.6
		C43.2,84.9,43.6,84.1,44.4,83.6"/>
	<path class="st4" d="M114.7,198.1c-20.4-12.6-37.6-30.4-49.7-51.3C53,125.9,46.2,102.1,45.5,78.1l-0.1-3.6c0-1.5,0.7-2.8,2-3.6
		L118,30.2c1.2-0.7,2.8-0.7,4,0L192.6,71c1.3,0.7,2,2.1,2,3.6l-0.1,3.6c-0.7,24-7.5,47.8-19.6,68.7c-12.1,20.9-29.3,38.7-49.7,51.3
		l-3.2,2c-1.3,0.8-2.9,0.8-4.2,0C117.9,200.1,114.7,198.1,114.7,198.1z"/>
	<path class="st5" d="M120,189.6c-38.1-23.6-62.3-64.7-64.4-109.4c-0.1-1.5,0.7-2.9,2-3.6L118,41.7c1.2-0.7,2.8-0.7,4,0l60.4,34.9
		c1.3,0.7,2.1,2.1,2,3.6C182.3,124.9,158.1,166.1,120,189.6"/>
	<g transform="translate(46 88.19)">
		<defs>
			<filter id="Adobe_OpacityMaskFilter" filterUnits="userSpaceOnUse" x="-14.6" y="0.9" width="177.1" height="177.1">
				<feColorMatrix  type="matrix" values="1 0 0 0 0  0 1 0 0 0  0 0 1 0 0  0 0 0 1 0"/>
			</filter>
		</defs>
		
			<mask maskUnits="userSpaceOnUse" x="-14.6" y="0.9" width="177.1" height="177.1" id="d_00000156571982386796499150000011223775511304334998_">
			<g class="st6">
				<path id="c_00000010287044042168843220000002600695231074438844_" class="st7" d="M10.3,0.9C15,42.1,38.4,79.4,74,101.4
					c35.6-22,59-59.4,63.7-100.6H10.3z"/>
			</g>
		</mask>
		<path class="st8" d="M162.6,89.4c0-48.9-39.7-88.6-88.6-88.6c-48.9,0-88.6,39.7-88.6,88.6c0,48.9,39.7,88.6,88.6,88.6
			C122.9,178,162.6,138.3,162.6,89.4"/>
	</g>
	<g transform="translate(57 124.19)">
		<defs>
			
				<filter id="Adobe_OpacityMaskFilter_00000032637965889800678840000013420096052357926558_" filterUnits="userSpaceOnUse" x="9.7" y="0.1" width="106.6" height="106.6">
				<feColorMatrix  type="matrix" values="1 0 0 0 0  0 1 0 0 0  0 0 1 0 0  0 0 0 1 0"/>
			</filter>
		</defs>
		
			<mask maskUnits="userSpaceOnUse" x="9.7" y="0.1" width="106.6" height="106.6" id="f_00000138548310984121258470000001824912083671583640_">
			<g style="filter:url(#Adobe_OpacityMaskFilter_00000032637965889800678840000013420096052357926558_);">
				<path id="e_00000044899021605392922710000005678058879814806450_" class="st7" d="M9.7,3.7C20.6,28.9,39.1,50.6,63,65.4
					c23.9-14.8,42.4-36.6,53.3-61.7V0.1H9.7V3.7z"/>
			</g>
		</mask>
		<path class="st10" d="M116.3,53.4C116.3,24,92.4,0.1,63,0.1C33.6,0.1,9.7,24,9.7,53.4s23.9,53.3,53.3,53.3
			C92.4,106.7,116.3,82.9,116.3,53.4"/>
	</g>
	<path class="st4" d="M137,131l-1.8,2.7c-0.1,0.1-0.2,0.2-0.4,0.3c-4.4,0.7-8.9,0.9-13.3,0.6c-0.1,0-0.2,0-0.3-0.1l-0.5-0.3
		c-0.3-0.2-0.3-0.6-0.2-0.8l6.2-9.2c0.2-0.3,0.6-0.3,0.8-0.2l9.2,6.2C137.1,130.3,137.2,130.7,137,131L137,131z M143.5,100.5
		l3.1,2.1c0.1,0.1,0.2,0.3,0.3,0.4c0.5,4.4,0.5,8.8,0,13.3c0,0.1,0,0.2-0.1,0.3l-0.1,0.2c-0.2,0.3-0.6,0.3-0.8,0.2l-9.2-6.2
		c-0.3-0.2-0.4-0.6-0.2-0.8l6.2-9.2C142.9,100.3,143.2,100.3,143.5,100.5z M144.4,98.1l0.6-0.8c0.3-0.4,1-0.3,1.1,0.2
		c0.1,0.5,0.2,0.9,0.3,1.4c0.1,0.5-0.5,0.9-0.9,0.6l-0.8-0.6C144.3,98.8,144.2,98.4,144.4,98.1z M139.7,80.8l0.2,0.1
		c0.1,0.1,0.2,0.1,0.2,0.2c2.1,3.9,3.8,8.1,4.9,12.3c0,0.2,0,0.4-0.1,0.5l-2.1,3.1c-0.2,0.3-0.6,0.3-0.8,0.2l-9.2-6.2
		c-0.3-0.2-0.3-0.6-0.2-0.8l6.2-9.2C139.1,80.7,139.5,80.6,139.7,80.8z M109.2,74.3l0.3-0.5c0.1-0.1,0.2-0.2,0.3-0.2
		c4-1.8,8.2-3.3,12.6-4.3c0.2,0,0.3,0,0.5,0.1l2.7,1.8c0.3,0.2,0.3,0.6,0.2,0.8l-6.2,9.2c-0.2,0.3-0.6,0.3-0.8,0.2l-9.2-6.2
		C109.1,75,109,74.6,109.2,74.3L109.2,74.3z M99,85.2l-3-2c-0.3-0.2-0.4-0.7,0-1c2.6-2.1,5.3-3.9,8.2-5.6c0.6-0.3,1.2,0.3,0.8,0.9
		L99.8,85C99.6,85.3,99.2,85.4,99,85.2z M91,96.9l-5.2-3.5c-0.3-0.2-0.4-0.6-0.1-0.9c2.4-3,5-5.7,7.8-8.2c0.2-0.2,0.5-0.2,0.7,0
		l3.7,2.5c0.3,0.2,0.3,0.6,0.2,0.8l-6.2,9.2C91.7,97,91.3,97.1,91,96.9z M83.1,108.6l-4.9-3.3c-0.3-0.2-0.3-0.5-0.2-0.8
		c1.7-3.4,3.6-6.6,5.8-9.6c0.2-0.3,0.6-0.3,0.8-0.1l5.3,3.6c0.3,0.2,0.3,0.6,0.2,0.8l-6.2,9.2C83.7,108.7,83.4,108.8,83.1,108.6z
		 M93.9,118.9l-3.6,5.3c-0.2,0.3-0.6,0.4-0.8,0.2c-3.1-2-6.1-4.2-9-6.8c-0.2-0.2-0.3-0.5-0.1-0.8l3.3-4.9c0.2-0.3,0.6-0.3,0.8-0.2
		l9.2,6.2C94.1,118.2,94.1,118.6,93.9,118.9z M105.7,126.8l-2.5,3.7c-0.2,0.2-0.4,0.3-0.7,0.2c-3.6-1.3-7-2.9-10.3-4.7
		c-0.3-0.2-0.4-0.6-0.2-0.9l3.5-5.2c0.2-0.3,0.6-0.3,0.8-0.2l9.2,6.2C105.8,126.2,105.9,126.5,105.7,126.8z M108,127.7l7.6,5.1
		c0.5,0.4,0.2,1.2-0.4,1.1c-3.3-0.5-6.5-1.2-9.6-2.2c-0.4-0.1-0.6-0.6-0.3-0.9l2-3C107.4,127.6,107.7,127.5,108,127.7z M115.9,116
		l9.2,6.2c0.3,0.2,0.3,0.6,0.2,0.8l-6.2,9.2c-0.2,0.3-0.6,0.4-0.8,0.2l-9.2-6.2c-0.3-0.2-0.3-0.6-0.2-0.8l6.2-9.2
		C115.3,115.8,115.7,115.8,115.9,116z M124.7,101.9l6.2-9.2c0.2-0.3,0.6-0.3,0.8-0.2l9.2,6.2c0.3,0.2,0.4,0.6,0.2,0.8l-6.2,9.2
		c-0.2,0.3-0.6,0.3-0.8,0.2l-9.2-6.2C124.6,102.6,124.5,102.2,124.7,101.9z M110.7,93.1l-9.2-6.2c-0.3-0.2-0.3-0.6-0.2-0.8l6.2-9.2
		c0.2-0.3,0.6-0.3,0.8-0.2l9.2,6.2c0.3,0.2,0.3,0.6,0.2,0.8l-6.2,9.2C111.3,93.2,110.9,93.3,110.7,93.1z M102.7,104.8l-9.2-6.2
		c-0.3-0.2-0.3-0.6-0.2-0.8l6.2-9.2c0.2-0.3,0.6-0.3,0.8-0.2l9.2,6.2c0.3,0.2,0.3,0.6,0.2,0.8l-6.2,9.2
		C103.4,104.9,103,105,102.7,104.8z M101.9,107.2l-6.2,9.2c-0.2,0.3-0.6,0.3-0.8,0.2l-9.2-6.2c-0.3-0.2-0.3-0.6-0.2-0.8l6.2-9.2
		c0.2-0.3,0.6-0.3,0.8-0.2l9.2,6.2C102,106.5,102.1,106.9,101.9,107.2z M114.5,112.8l-9.2-6.2c-0.3-0.2-0.3-0.6-0.2-0.8l6.2-9.2
		c0.2-0.3,0.6-0.3,0.8-0.2l9.2,6.2c0.3,0.2,0.3,0.6,0.2,0.8l-6.2,9.2C115.1,112.9,114.7,112.9,114.5,112.8z M104.2,108l9.2,6.2
		c0.3,0.2,0.3,0.6,0.2,0.8l-6.2,9.2c-0.2,0.3-0.6,0.3-0.8,0.2l-9.2-6.2c-0.3-0.2-0.3-0.6-0.2-0.8l6.2-9.2
		C103.6,107.9,103.9,107.8,104.2,108z M130.3,89.3l-9.2-6.2c-0.3-0.2-0.3-0.6-0.2-0.8l6.2-9.2c0.2-0.3,0.6-0.3,0.8-0.2l9.2,6.2
		c0.3,0.2,0.4,0.6,0.2,0.8l-6.2,9.2C131,89.4,130.6,89.5,130.3,89.3z M120.1,84.6l9.2,6.2c0.3,0.2,0.3,0.6,0.2,0.8l-6.2,9.2
		c-0.2,0.3-0.6,0.3-0.8,0.2l-9.2-6.2c-0.3-0.2-0.3-0.6-0.2-0.8l6.2-9.2C119.4,84.5,119.8,84.4,120.1,84.6z M128.5,121.5l6.2-9.2
		c0.2-0.3,0.6-0.3,0.8-0.2l9.2,6.2c0.3,0.2,0.4,0.6,0.2,0.8l-6.2,9.2c-0.2,0.3-0.6,0.4-0.8,0.2l-9.2-6.2
		C128.4,122.2,128.3,121.8,128.5,121.5z M133.2,111.3l-6.2,9.2c-0.2,0.3-0.6,0.3-0.8,0.2l-9.2-6.2c-0.3-0.2-0.3-0.6-0.2-0.8l6.2-9.2
		c0.2-0.3,0.6-0.3,0.8-0.2l9.2,6.2C133.4,110.7,133.4,111,133.2,111.3z M75,111.6l0.7-1.7c0.3-0.8,0.7-1.7,1-2.5
		c0.2-0.3,0.6-0.5,0.9-0.3l4.5,3c0.3,0.2,0.3,0.6,0.2,0.8l-3,4.5c-0.2,0.3-0.7,0.4-0.9,0.1c-0.6-0.6-1.3-1.3-1.9-1.9l-1.3-1.4
		C75,112.1,74.9,111.8,75,111.6z M131.1,68.5c1.9,2,3.6,4.1,5.1,6.3c0.4,0.5-0.3,1.2-0.8,0.8l-6.3-4.3c-0.3-0.2-0.4-0.6-0.2-0.8
		l1.6-2.4C130.7,68.2,130.9,68.3,131.1,68.5L131.1,68.5z M142.8,132l-2.4-1.6c-0.3-0.2-0.4-0.6-0.2-0.8l4.3-6.3
		c0.4-0.6,1.2-0.2,1.1,0.5c-0.6,2.6-1.4,5.2-2.4,7.7l0,0C143.1,131.6,142.9,131.8,142.8,132L142.8,132z M138,135.2l4-0.8
		c1.3-0.2,2.3-1.1,2.8-2.3l0,0c8.7-22.1,3.8-47.5-12.5-64.8l0,0c-0.9-0.9-2.2-1.3-3.5-1.1l-4,0.8c-23.2,4.5-42.2,20.3-50.9,42.3
		l-0.6,1.5c-0.2,0.5-0.2,1.1-0.1,1.6c0.1,0.5,0.3,1,0.7,1.4l1.1,1.2C91.3,132,114.8,139.7,138,135.2z"/>
	<path class="st11" d="M184.2,83.6c0.1-1.1,0.2-2.2,0.2-3.3c0.1-1.5-0.7-2.9-2-3.7L122,41.7c-1.2-0.7-2.8-0.7-4,0L57.6,76.6
		c-1.3,0.8-2.1,2.2-2,3.7c0.1,1.1,0.1,2.2,0.2,3.3L120,46.6L184.2,83.6L184.2,83.6z"/>
	<path class="st4" d="M142.1,126.2c-0.4,1.4-2.3,1.8-3.2,0.6c-5.8-7.2-9.8-15.8-11.6-25c-1.8-9.2-1.3-18.6,1.5-27.5
		c0.4-1.4,2.3-1.8,3.2-0.6c5.8,7.2,9.8,15.8,11.6,25C145.3,107.9,144.8,117.3,142.1,126.2 M132.8,66.8c-1.1-1.1-2.6-1.6-4.1-1.3
		c-1.5,0.3-2.8,1.3-3.3,2.8c-8.8,22.3-3.8,48,12.6,65.5c0.8,0.9,1.9,1.3,3,1.4c0.4,0,0.7,0,1.1-0.1c1.5-0.3,2.8-1.3,3.3-2.8
		C154.2,110,149.3,84.3,132.8,66.8"/>
	<path class="st4" d="M152.2,174.6l-8.6-44.8l-4.8,0.9l8.6,44.8"/>
	<path class="st12" d="M175,141.8c-12.1,20.9-29.3,38.7-49.7,51.3l-3.2,2c-1.3,0.8-2.9,0.8-4.2,0l-3.2-2
		c-20.4-12.6-37.6-30.4-49.7-51.3C53,121,46.3,97.3,45.5,73.4c-0.1,0.4-0.1,0.7-0.1,1.1l0.1,3.6c0.7,24,7.5,47.8,19.6,68.7
		c12.1,20.9,29.3,38.7,49.7,51.3l3.2,2c1.3,0.8,2.9,0.8,4.2,0l3.2-2c20.4-12.6,37.6-30.4,49.7-51.3c12.1-20.9,18.8-44.7,19.6-68.7
		l0.1-3.6c0-0.4,0-0.7-0.1-1.1C193.7,97.3,187,121,175,141.8"/>
	<path class="st4" d="M39.9,176.5L39.9,176.5c-1.2,2.1-3.4,3.2-5.8,3.1c-2.4-0.1-4.4-1.6-5.3-3.8c0-0.1,0-0.2,0-0.2
		c1.1-1.9,3.1-3.1,5.4-3.1c0.1,0,0.3,0,0.4,0c2.4,0.1,4.4,1.6,5.3,3.8C39.9,176.3,39.9,176.4,39.9,176.5 M28.8,161.7
		c-1.2,1.1-2.5,1.5-3.5,1.6c-0.1-0.3-0.2-0.7-0.3-1c-0.7-1.5-2.1-2.3-3.6-2.3c-0.6,0-1.1,0.1-1.7,0.4c-0.1,0-0.2,0.1-0.3,0.2
		c-0.5-0.8-0.9-1.7-1-2.7c0-0.1,0-0.2,0.1-0.2c1.8-1.6,4.1-2.1,6.4-1.3c2.3,0.8,3.8,2.7,4.1,5.1C28.9,161.6,28.8,161.7,28.8,161.7
		 M19.3,125.3c0,0.1-0.1,0.1-0.2,0.2c-2.3,0.5-4.7-0.3-6.2-2.2c-1.5-1.9-1.8-4.3-0.9-6.5c0-0.1,0.1-0.1,0.2-0.2
		c0.5-0.1,0.9-0.2,1.4-0.2c1.8,0,3.6,0.8,4.8,2.3C20,120.6,20.3,123.1,19.3,125.3 M19.8,103.2c0.7,0.1,1.5,0,2.2-0.3
		c1-0.5,1.7-1.3,2.1-2.3c0.3-1,0.3-2-0.1-2.9c0.1,0,0.1,0,0.2-0.1c0.1,0,0.2,0,0.2,0c1.9,1.4,2.8,3.7,2.4,6.1
		c-0.4,2.4-2,4.2-4.3,4.9c-0.1,0-0.2,0-0.2,0C20.5,107.3,19.6,105.3,19.8,103.2 M24.4,119.4c1.2-0.9,2.5-1.4,3.9-1.4
		c0.9,0,1.7,0.2,2.6,0.6c0.1,0,0.1,0.1,0.2,0.2c0.5,2.3-0.3,4.7-2.2,6.2c-1.9,1.5-4.3,1.8-6.5,0.9c-0.1,0-0.1-0.1-0.1-0.2
		C21.7,123.2,22.5,120.9,24.4,119.4 M30.2,153.9c0.8-2.3,2.7-3.8,5.1-4.1c0,0,0,0,0,0c0.1,0,0.1,0,0.2,0.1c1.6,1.8,2.1,4.1,1.3,6.4
		c-0.8,2.3-2.7,3.8-5.1,4.1c-0.1,0-0.2,0-0.2-0.1c-0.1-0.1-0.1-0.2-0.2-0.3c-0.4-0.7-0.8-1.5-1.2-2.2
		C29.7,156.5,29.7,155.2,30.2,153.9 M39,168.5c0.1-2.4,1.6-4.4,3.8-5.3c0,0,0.1,0,0.1,0c0,0,0.1,0,0.1,0c2.1,1.2,3.2,3.4,3.1,5.8
		c-0.2,2.4-1.6,4.4-3.8,5.3c0,0,0,0,0,0c-0.1,0-0.2,0-0.2,0c-0.1-0.1-0.3-0.2-0.4-0.3c-0.6-0.7-1.3-1.4-1.9-2.1
		C39.2,170.9,39,169.8,39,168.5 M56.1,188.9c-0.7,2.3-2.5,4-4.8,4.4c-2.4,0.5-4.6-0.4-6.1-2.3c-0.1-0.1-0.1-0.2,0-0.2
		c0.7-2.3,2.5-4,4.8-4.4c0.4-0.1,0.8-0.1,1.2-0.1c1.9,0,3.7,0.9,4.9,2.4C56.1,188.7,56.1,188.8,56.1,188.9 M21.8,144.2
		c0,0.1-0.1,0.2-0.1,0.2c0,0,0,0,0,0c-2.1,1.1-4.6,0.9-6.5-0.6c-1.9-1.4-2.8-3.7-2.5-6.1c0-0.1,0.1-0.2,0.1-0.2
		c0.9-0.5,1.9-0.7,2.8-0.7c1.3,0,2.6,0.4,3.7,1.2C21.3,139.6,22.2,141.8,21.8,144.2 M25.3,137.2c1.2-1.6,3-2.5,5-2.5
		c0.4,0,0.7,0,1.1,0.1c0.1,0,0.2,0.1,0.2,0.1c1.1,2.1,0.9,4.6-0.5,6.5c-1.4,1.9-3.7,2.9-6.1,2.5h0c-0.1,0-0.2-0.1-0.2-0.1
		C23.6,141.6,23.8,139.2,25.3,137.2 M55.6,175.3c0,0,0.1-0.1,0.2-0.1c0,0,0,0,0.1,0c2.3,0.7,4,2.5,4.4,4.8c0.5,2.4-0.4,4.6-2.3,6.1
		c-0.1,0.1-0.2,0.1-0.2,0c-2.3-0.7-4-2.5-4.4-4.8C52.8,179.1,53.7,176.8,55.6,175.3 M68.7,191.7c-3.2-1.2-6.3-2.6-9.2-4.1
		c2.3-1.9,3.3-4.9,2.8-7.8c-0.6-3.1-2.8-5.5-5.8-6.4c-0.7-0.2-1.4-0.1-2,0.4c-2.5,1.9-3.6,5-3.1,8.1c0.1,0.3,0.1,0.5,0.2,0.8
		c-2.8-2-5.5-4.3-8-6.7c2.6-1.3,4.3-3.9,4.5-6.8c0.2-3.1-1.4-6-4-7.6c-0.6-0.4-1.4-0.4-2-0.1c-2.9,1.2-4.8,3.9-5,7.1
		c0,0.1,0,0.1,0,0.2c-1.6-2-3.1-4.2-4.4-6.4c2.8-0.6,5.1-2.5,6.1-5.2c1.1-2.9,0.4-6.2-1.7-8.5c0,0,0,0,0,0c-0.5-0.5-1.2-0.8-1.9-0.7
		c-3.1,0.4-5.7,2.4-6.8,5.4c-0.1,0.2-0.1,0.4-0.2,0.6c-1.2-2.6-2.1-5.2-3-7.9c0.3,0,0.6,0,0.8,0c2.6,0,5-1.2,6.6-3.4
		c1.9-2.5,2.1-5.8,0.7-8.6c-0.3-0.6-0.9-1.1-1.6-1.2c-3.1-0.5-6.1,0.7-8,3.2c-0.3,0.4-0.5,0.7-0.7,1.1c-0.6-3.1-0.9-6.3-1.1-9.5
		c1,0.4,2,0.6,3,0.6c1.9,0,3.7-0.6,5.2-1.9c2.4-2,3.5-5.1,2.8-8.1c-0.2-0.7-0.6-1.3-1.3-1.6c-2.9-1.3-6.1-0.8-8.6,1.1
		c-0.4,0.3-0.7,0.6-1,1c0.2-2.8,0.6-5.6,1.2-8.4c2.9-1,5-3.4,5.5-6.4c0.5-3.1-0.7-6.2-3.2-8c-0.6-0.4-1.3-0.6-2-0.4
		c-0.5,0.1-1,0.3-1.5,0.6c-0.3,0.1-0.5,0.4-0.5,0.7c-0.1,0.3,0,0.6,0.2,0.8c0.1,0.2,0.2,0.3,0.3,0.5c0.5,1,0,2.2-1,2.7
		c-0.5,0.3-1.2,0.2-1.7,0c-0.3-0.1-0.6-0.1-0.9,0c-0.3,0.1-0.5,0.4-0.5,0.7c-0.8,3.3,0.4,6.5,3,8.5c0.1,0.1,0.2,0.1,0.2,0.1
		c-0.5,2.5-0.9,5-1.1,7.5c-0.1-0.1-0.1-0.2-0.2-0.3c-2-2.4-5.1-3.5-8.1-2.8c-0.7,0.2-1.3,0.6-1.6,1.3c-1.3,2.9-0.8,6.1,1.1,8.6
		c1.6,2,3.9,3,6.4,3c0.6,0,1.2-0.1,1.8-0.2c0.1,0,0.2-0.1,0.4-0.1c0.1,3.2,0.4,6.4,1,9.5c-0.1-0.1-0.2-0.2-0.3-0.3
		c-2.5-1.9-5.8-2.1-8.6-0.7c-0.6,0.3-1.1,0.9-1.2,1.6c-0.5,3.1,0.7,6.1,3.2,8c1.5,1.1,3.2,1.6,4.9,1.6c1.3,0,2.5-0.3,3.7-0.9
		c0.2-0.1,0.3-0.2,0.4-0.3c0.9,3.1,2.1,6.1,3.4,9.1c-0.3-0.2-0.6-0.3-1-0.4c-2.9-1.1-6.2-0.4-8.5,1.7c0,0,0,0,0,0
		c-0.5,0.5-0.8,1.2-0.7,1.9c0.2,1.7,0.9,3.3,2.1,4.5c0.2,0.2,0.5,0.3,0.7,0.3c0.3,0,0.5-0.1,0.7-0.3c0.2-0.2,0.4-0.3,0.6-0.4
		c0.5-0.2,1-0.3,1.5-0.1c0.5,0.2,0.9,0.6,1.1,1c0.2,0.3,0.2,0.7,0.2,1.1c0,0.3,0.1,0.6,0.2,0.8c0.2,0.2,0.4,0.3,0.7,0.3
		c0.1,0,0.2,0,0.3,0c2.1,0,4.1-0.8,5.6-2.2c0.2-0.1,0.3-0.3,0.4-0.5c1.7,2.8,3.6,5.5,5.6,8c-0.5-0.1-0.9-0.2-1.4-0.2
		c-3.1-0.2-6,1.4-7.6,4c-0.4,0.6-0.4,1.4-0.1,2c1.2,2.9,3.9,4.8,7.1,5c0.2,0,0.4,0,0.5,0c2.9,0,5.6-1.5,7.1-4.1
		c0.1-0.2,0.2-0.3,0.2-0.5c2.7,2.6,5.5,5.1,8.6,7.3c-0.3,0-0.6,0-0.9,0.1c-3.1,0.6-5.5,2.8-6.4,5.8c-0.2,0.7-0.1,1.4,0.4,2
		c1.6,2.1,4,3.2,6.5,3.2c0.5,0,1-0.1,1.6-0.1c3.1-0.6,5.5-2.8,6.4-5.8c0-0.1,0-0.3,0.1-0.4c3.2,1.7,6.5,3.2,9.9,4.5
		c0.1,0,0.2,0.1,0.3,0.1c0.4,0,0.8-0.3,0.9-0.7C69.5,192.4,69.2,191.9,68.7,191.7 M225.7,119.6c-0.7,1.5-0.4,3.2,0.7,4.4
		c-1.5,1.3-3.5,1.8-5.5,1.4c-0.1,0-0.1-0.1-0.2-0.2c-1-2.2-0.7-4.6,0.9-6.5c1.2-1.5,2.9-2.3,4.8-2.3c0.5,0,0.9,0.1,1.4,0.2
		c0.1,0,0.1,0.1,0.2,0.2c0.1,0.2,0.2,0.4,0.3,0.7C227.2,117.8,226.2,118.5,225.7,119.6 M215.3,156.4c0.7-0.3,1.5-0.4,2.2-0.4
		c1.5,0,3,0.6,4.2,1.7c0.1,0.1,0.1,0.1,0.1,0.2c-0.3,2.4-1.8,4.3-4.1,5.1c-2.3,0.8-4.7,0.3-6.4-1.3c0,0,0,0,0,0
		c-0.1-0.1-0.1-0.1-0.1-0.2C211.5,159.1,213,157.2,215.3,156.4 M205.5,172.4c0.1,0,0.3,0,0.4,0c2.2,0,4.2,1.1,5.4,3.1
		c0,0.1,0,0.2,0,0.2c-0.9,2.2-2.9,3.6-5.3,3.8c-2.4,0.2-4.6-1-5.8-3.1l0,0c0-0.1,0-0.2,0-0.2C201.1,174,203.1,172.6,205.5,172.4
		 M194,169c-0.2-2.4,1-4.6,3.1-5.8c0,0,0.1,0,0.1,0c0,0,0.1,0,0.1,0c2.2,0.9,3.6,2.9,3.8,5.3c0.1,1.2-0.2,2.4-0.8,3.4
		c-0.6,0.7-1.3,1.4-1.9,2.1c-0.1,0.1-0.3,0.2-0.4,0.3c-0.1,0-0.2,0-0.2,0l0,0C195.5,173.3,194.1,171.3,194,169 M208.6,160.3
		c-0.1,0.1-0.1,0.1-0.2,0.1c-2.4-0.3-4.3-1.8-5.1-4.1c-0.8-2.3-0.3-4.7,1.3-6.4c0.1-0.1,0.1-0.1,0.2-0.1c2.4,0.3,4.3,1.8,5.1,4.1
		c0.5,1.3,0.5,2.7,0.1,3.9c-0.4,0.8-0.8,1.5-1.2,2.2C208.7,160.1,208.6,160.2,208.6,160.3 M217.9,125.6c0,0.1-0.1,0.2-0.1,0.2
		c-2.2,1-4.6,0.7-6.5-0.9c-1.9-1.5-2.7-3.8-2.2-6.2c0-0.1,0.1-0.2,0.2-0.2c0.8-0.4,1.7-0.6,2.6-0.6c1.4,0,2.8,0.5,3.9,1.4
		C217.6,120.9,218.4,123.2,217.9,125.6 M213.2,103.8c-0.4-2.4,0.5-4.6,2.4-6.1c0.1-0.1,0.2-0.1,0.2,0c2.3,0.7,3.9,2.5,4.3,4.9
		c0.4,2.4-0.5,4.6-2.4,6.1c-0.1,0.1-0.2,0.1-0.2,0C215.3,107.9,213.7,106.1,213.2,103.8 M220.7,138.1c1.1-0.8,2.4-1.2,3.7-1.2
		c1,0,1.9,0.2,2.8,0.7c0.1,0,0.1,0.1,0.1,0.2c0.4,2.4-0.5,4.6-2.5,6.1c-1.9,1.4-4.4,1.6-6.5,0.5c0,0,0,0,0,0c-0.1,0-0.1-0.1-0.1-0.2
		C217.8,141.8,218.8,139.6,220.7,138.1 M195,190.7c0,0.1,0,0.2,0,0.2c-1.5,1.9-3.8,2.8-6.1,2.3c-2.4-0.5-4.2-2.1-4.8-4.4
		c0-0.1,0-0.2,0-0.2c1.2-1.6,3-2.4,4.9-2.4c0.4,0,0.8,0,1.2,0.1C192.5,186.8,194.3,188.4,195,190.7 M182.5,182.8
		c0.9-1.9,0.1-4.2-1.6-5.2c0.8-1.1,2-1.9,3.3-2.3c0.1,0,0.2,0,0.2,0c1.9,1.5,2.8,3.8,2.3,6.1c-0.5,2.4-2.1,4.2-4.4,4.8
		c-0.1,0-0.2,0-0.2,0c-0.6-0.4-1-1-1.4-1.5C181.5,184.3,182.2,183.6,182.5,182.8 M209.1,141.4c-1.4-1.9-1.6-4.4-0.6-6.5
		c0-0.1,0.1-0.1,0.2-0.1c0.4-0.1,0.7-0.1,1.1-0.1c2,0,3.8,0.9,5,2.5c1.4,1.9,1.6,4.4,0.5,6.5c0,0.1-0.1,0.1-0.2,0.1
		C212.8,144.3,210.5,143.4,209.1,141.4 M229.4,119.3c0.3,0,0.6-0.1,0.8-0.3c0.2-0.2,0.3-0.5,0.2-0.8c-0.1-0.8-0.3-1.5-0.6-2.2
		c-0.3-0.7-0.9-1.1-1.6-1.3c-3-0.7-6.2,0.4-8.1,2.8c-0.1,0.1-0.1,0.2-0.2,0.3c-0.2-2.5-0.6-5-1.1-7.5c0.1,0,0.2-0.1,0.2-0.1
		c2.5-1.9,3.7-5,3.2-8c-0.5-3.1-2.7-5.6-5.7-6.5c-0.7-0.2-1.4-0.1-2,0.4c-2.5,1.9-3.7,5-3.2,8c0.5,3,2.6,5.4,5.5,6.4
		c0.6,2.8,1,5.6,1.2,8.4c-0.3-0.3-0.6-0.7-1-1c-2.4-2-5.7-2.4-8.6-1.1c-0.7,0.3-1.1,0.9-1.3,1.6c-0.7,3.1,0.4,6.2,2.8,8.1
		c1.5,1.2,3.3,1.9,5.2,1.9c1,0,2-0.2,3-0.6c-0.1,3.2-0.5,6.3-1.1,9.5c-0.2-0.4-0.4-0.8-0.7-1.1c-1.9-2.5-4.9-3.8-8-3.2
		c-0.7,0.1-1.3,0.6-1.6,1.2c-1.4,2.8-1.1,6.1,0.7,8.6c1.6,2.1,4,3.4,6.6,3.4c0.3,0,0.6,0,0.8,0c-0.8,2.7-1.8,5.3-3,7.9
		c-0.1-0.2-0.1-0.4-0.2-0.6c-1.1-2.9-3.7-5-6.8-5.4c-0.7-0.1-1.4,0.2-1.9,0.7c-2.1,2.3-2.8,5.5-1.7,8.5c1,2.7,3.3,4.7,6.1,5.2
		c-1.4,2.2-2.8,4.3-4.4,6.4c0-0.1,0-0.1,0-0.2c-0.2-3.1-2.1-5.8-5-7.1c-0.7-0.3-1.4-0.2-2,0.1c-2.7,1.6-4.2,4.5-4.1,7.6
		c0.2,2.9,1.9,5.5,4.5,6.8c-2.5,2.4-5.1,4.7-8,6.7c0.1-0.3,0.2-0.5,0.2-0.8c0.6-3.1-0.6-6.2-3.1-8.1c0,0,0,0,0,0
		c-0.6-0.4-1.3-0.6-2-0.4c-2.3,0.7-4.1,2.2-5.2,4.4c-0.1,0.3-0.1,0.6,0,0.9c0.1,0.3,0.4,0.5,0.7,0.5c0.2,0,0.4,0.1,0.5,0.1
		c0.5,0.2,0.9,0.6,1,1.1c0.2,0.5,0.2,1.1-0.1,1.5c-0.3,0.6-0.9,1.1-1.6,1.1c-0.3,0-0.6,0.2-0.7,0.5c-0.2,0.3-0.2,0.6-0.1,0.9
		c0.5,1.2,1.3,2.2,2.3,3.1c-2.9,1.6-6,3-9.2,4.1c-0.5,0.2-0.8,0.8-0.6,1.3c0.1,0.4,0.5,0.7,0.9,0.7c0.1,0,0.2,0,0.3-0.1
		c3.5-1.3,6.8-2.8,9.9-4.5c0,0.1,0,0.3,0.1,0.4c0.9,3,3.3,5.2,6.4,5.8c0.5,0.1,1,0.1,1.6,0.1c2.5,0,4.9-1.2,6.5-3.2
		c0.4-0.6,0.6-1.3,0.4-2c0,0,0,0,0,0c-0.9-3-3.3-5.2-6.4-5.8c-0.3-0.1-0.6-0.1-0.9-0.1c3.1-2.2,5.9-4.7,8.6-7.3
		c0.1,0.2,0.1,0.3,0.2,0.5c1.5,2.5,4.2,4.1,7.1,4.1c0.2,0,0.4,0,0.5,0c3.1-0.2,5.8-2.1,7.1-5c0.3-0.7,0.2-1.4-0.1-2
		c-1.6-2.7-4.5-4.3-7.6-4.1c-0.5,0-1,0.1-1.4,0.2c2-2.5,3.9-5.2,5.6-8c0.1,0.2,0.2,0.4,0.4,0.5c1.6,1.5,3.6,2.2,5.6,2.2
		c0.9,0,1.9-0.2,2.8-0.5c2.9-1.1,5-3.7,5.4-6.8c0.1-0.7-0.2-1.4-0.7-1.9c-2.3-2.1-5.5-2.8-8.5-1.7c-0.3,0.1-0.7,0.3-1,0.4
		c1.3-2.9,2.5-6,3.4-9.1c0.1,0.1,0.3,0.2,0.4,0.3c1.2,0.6,2.5,0.9,3.7,0.9c1.7,0,3.4-0.5,4.9-1.6c2.5-1.9,3.8-4.9,3.2-8
		c-0.1-0.7-0.6-1.3-1.2-1.6c-2.8-1.4-6.1-1.1-8.6,0.7c-0.1,0.1-0.2,0.2-0.3,0.3c0.5-3.1,0.9-6.3,1-9.5c0.1,0,0.2,0.1,0.4,0.1
		c0.6,0.1,1.2,0.2,1.8,0.2c2.4,0,4.8-1.1,6.3-3c0.2-0.2,0.3-0.5,0.2-0.8c-0.1-0.3-0.2-0.5-0.5-0.7c-0.9-0.5-1.3-1.6-0.8-2.6
		C227.9,119.7,228.6,119.3,229.4,119.3 M93.8,194.3c-1.1,0-2.2-0.3-3.1-0.8l-12.2-7c-2-1.1-3.2-3.2-3.2-5.5v-13.9
		c0-2.3,1.2-4.3,3.2-5.5l12.2-7c1-0.5,2-0.8,3.1-0.8s2.2,0.3,3.1,0.8l12.2,7c2,1.1,3.2,3.2,3.2,5.5v13.9c0,2.3-1.2,4.3-3.2,5.5
		l-12.2,7C95.9,194.1,94.9,194.3,93.8,194.3"/>
	<path class="st3" d="M80.3,181.1v-13.9c0-0.5,0.2-0.9,0.7-1.1l12.2-7c0.4-0.2,0.9-0.2,1.3,0l12.2,7c0.4,0.2,0.7,0.7,0.7,1.1v13.9
		c0,0.5-0.2,0.9-0.7,1.1l-12.2,7c-0.4,0.2-0.9,0.2-1.3,0l-12.2-7C80.5,182,80.3,181.5,80.3,181.1"/>
	<path class="st13" d="M94.2,166.7l1.8,3.6c0.1,0.2,0.2,0.3,0.4,0.3l3.9,0.6c0.4,0.1,0.6,0.6,0.3,0.9l-2.8,2.8
		c-0.1,0.1-0.2,0.3-0.2,0.5l0.7,3.9c0.1,0.4-0.4,0.7-0.8,0.5l-3.5-1.9c-0.2-0.1-0.3-0.1-0.5,0l-3.5,1.9c-0.4,0.2-0.8-0.1-0.8-0.5
		l0.7-3.9c0-0.2,0-0.3-0.2-0.5l-2.8-2.8c-0.3-0.3-0.1-0.8,0.3-0.9l3.9-0.6c0.2,0,0.3-0.1,0.4-0.3l1.8-3.6
		C93.5,166.3,94,166.3,94.2,166.7"/>
	<path class="st14" d="M9.5,0h220v240H9.5V0z"/>
</g>
</svg>
