<?xml version="1.0" encoding="utf-8"?>
<!-- Generator: Adobe Illustrator 28.0.0, SVG Export Plug-In . SVG Version: 6.00 Build 0)  -->
<svg version="1.1" xmlns="http://www.w3.org/2000/svg" xmlns:xlink="http://www.w3.org/1999/xlink" x="0px" y="0px"
	 viewBox="0 0 128 128" style="enable-background:new 0 0 128 128;" xml:space="preserve">
<style type="text/css">
	.st0{fill:#2E2E2E;}
	.st1{fill:#FFFFFF;}
	.st2{fill:#FAAB18;}
	.st3{fill:#231F20;}
	.st4{opacity:0.52;fill:#EE8AB8;}
</style>
<g id="Layer_3">
	<g>
		<path class="st0" d="M50.1,126.5c-0.7,0-1.3-0.1-2-0.2c-3.3-0.7-7.6-3.9-8-7.9c-0.9-0.3-1.8-0.5-2.6-0.8c-1.4-0.5-2.9-1.1-4.2-1.7
			c-8.8-4-15.5-10.5-18.6-18.3c-3.7-9-2.8-18.7-1-25.8C12.8,71.9,11.9,72,11,72c-2.5,0-4.6-0.7-6.4-2c-3.1-2.4-3.9-6.4-2.3-10.6
			c1.6-4.2,4.9-7.3,7.3-9.1c2.8-2.2,5.4-3.6,7.6-4.2c0-0.3,0-0.6,0.1-0.8c0.8-4.7,2.1-9.4,4.1-13.8c2.1-4.8,4.9-9.3,8.2-13.4
			c3.6-4.4,7-7.5,10.8-9.7c3.6-2.1,8-3.8,12.9-5c5.1-1.2,10.1-1.9,15-1.9c0.7,0,1.4,0,2.1,0c10.8,0.4,20.7,4.8,28,12.4
			c5.5,5.8,9.6,12.9,12.5,21.8c0.4,1.2,0.8,2.5,1.1,3.8c0.5,0.3,1,0.7,1.5,1c0.2,0.2,0.4,0.3,0.6,0.5c1.6,1.1,3.2,2.4,4.6,3.7
			c2.9,2.6,5.8,5.4,7.2,9c1.1,2.9,0.7,6-1,8.6c-1.7,2.5-4.5,4-7.5,4c-0.3,0-0.5,0-0.8,0c0.1,0.9,0.6,5.7,0.6,5.7
			c0.9,9,1.2,19.5-3.3,29.1c-2.7,5.8-7,10.3-12.9,13.5c-0.8,0.4-1.6,0.8-2.4,1.2c-0.6,4.6-4,8.4-8.5,9.1c-0.5,0.1-1,0.1-1.5,0.1
			c-3.6,0-7.5-1.8-8.9-5c-1,0.1-2,0.2-2.9,0.2c-4.4,0.3-8.9,0.5-13.2,0.6l-0.3,0c-1.2,0-2.3,0.1-3.5,0.1c0,0-0.5,0-0.5,0
			C57.6,124.2,53.9,126.5,50.1,126.5z"/>
		<path class="st1" d="M68.3,3c0.7,0,1.4,0,2.1,0c10.3,0.4,19.8,4.5,26.9,12c5.8,6.1,9.6,13.4,12.1,21.3c0.5,1.4,0.9,2.8,1.3,4.3
			c0.9,0.5,1.7,1.1,2.5,1.7c1.6,1.1,3.1,2.3,4.5,3.6c2.6,2.3,5.5,5.1,6.8,8.4c2,5.3-2.1,10.5-7.1,10.5c-0.8,0-1.7-0.1-2.5-0.4
			c0.2,2.2,0.5,4.3,0.7,6.4c0,0.4,0.1,0.9,0.1,1.3c1,9.6,1,19.4-3.2,28.3c-2.7,5.7-7,9.9-12.2,12.8c-1,0.5-2,1-3.1,1.5
			c-0.2,4.1-3.1,7.9-7.3,8.7c-0.4,0.1-0.8,0.1-1.3,0.1c-3.2,0-7.3-1.8-7.8-5.1c-1.4,0.1-2.7,0.3-4.1,0.4c-4.5,0.3-9,0.5-13.4,0.6
			c-1.1,0-2.3,0.1-3.4,0.1c-0.1,0-0.2,0-0.3,0c-0.4,0-0.8,0-1.1,0c0,0.1-0.1,0.2-0.1,0.3c-1.5,3.2-4.8,5.4-8.3,5.4
			c-0.6,0-1.1-0.1-1.7-0.2c-3.1-0.6-7.3-4-6.8-7.5c-1.2-0.3-2.4-0.7-3.6-1.1c-1.4-0.5-2.8-1-4.1-1.6C26.1,111,19.3,105.1,16,97
			c-3.5-8.6-2.9-18.4-0.3-27.1c-1.5,0.3-3.1,0.6-4.7,0.6c-1.9,0-3.8-0.4-5.5-1.7c-2.8-2.2-3-5.8-1.8-8.9c1.3-3.4,4-6.3,6.8-8.5
			c2.1-1.7,5.4-3.9,8.4-4.2c-0.2-0.5-0.2-1.2-0.1-1.7c0.7-4.6,2.1-9.2,4-13.5c2.1-4.7,4.7-9.1,8-13c3-3.7,6.3-7,10.4-9.4
			c3.9-2.3,8.2-3.8,12.5-4.9C58.4,3.6,63.3,3,68.3,3 M68.3,0v3V0L68.3,0c-5,0-10.2,0.6-15.4,1.9c-5,1.2-9.5,3-13.3,5.2
			c-4,2.3-7.5,5.5-11.2,10.1c-3.4,4.2-6.2,8.8-8.4,13.7c-2,4.5-3.4,9.3-4.2,14.1c-2.2,0.7-4.5,2.1-7.1,4.1c-2.6,2-6,5.3-7.8,9.8
			c-1.9,4.8-0.8,9.6,2.8,12.4c2,1.5,4.4,2.3,7.3,2.3c0.2,0,0.5,0,0.7,0c-1.5,7.1-2,16.1,1.5,24.7c3.3,8.1,10.2,14.9,19.4,19.1
			c1.4,0.6,2.9,1.2,4.4,1.7c0.6,0.2,1.2,0.4,1.8,0.6c1,4.2,5.5,7.4,9.1,8.2c0.7,0.2,1.5,0.2,2.3,0.2c4.1,0,8-2.2,10.2-5.7
			c1,0,2,0,3.2-0.1l0.2,0c4.3-0.1,8.8-0.3,13.3-0.6c0.6,0,1.2-0.1,1.9-0.2c1.9,3.2,6.1,4.9,9.8,4.9c0.6,0,1.2,0,1.8-0.1
			c4.8-0.8,8.6-4.7,9.5-9.6c0.6-0.3,1.2-0.6,1.7-0.9c6.1-3.3,10.7-8.1,13.5-14.1c4.7-9.9,4.4-20.7,3.4-29.9l0-0.1
			c0-0.4-0.1-0.8-0.1-1.2l-0.2-1.6c0-0.4-0.1-0.7-0.1-1.1c3.1-0.3,6-1.9,7.9-4.6c2-2.9,2.5-6.6,1.2-9.9c-1.5-3.9-4.5-6.9-7.6-9.6
			c-1.5-1.3-3.1-2.6-4.8-3.8c-0.2-0.1-0.4-0.3-0.6-0.4c-0.3-0.2-0.7-0.5-1.1-0.8c-0.3-1.1-0.7-2.2-1-3.3c-3-9.1-7.2-16.4-12.8-22.4
			C92,5,81.7,0.5,70.5,0C69.8,0,69,0,68.3,0L68.3,0z"/>
	</g>
</g>
<g id="Layer_2">
	<path class="st1" d="M108.5,88.6c-0.8,4.7-2.5,9.3-5.8,12.9c-3,3.3-7.1,5.4-11.4,6.7c-4.5,1.4-9.3,2.1-14,2.7
		c-5.7,0.7-11.5,1.4-17.2,0.6c-9.6-1.3-17.2-7.1-21.9-15.5c-5.3-9.5-6.1-20.6-5.2-31.3c0.4-5.5,1.2-11.1,2.1-16.6
		c0.7-4.5,1.7-9.1,3.5-13.3c3.6-8.4,11.5-14,20.9-12.4c8.8,1.6,14.8,9.8,14.2,18.5c0,0,0.1,0.1,0.1,0.1c1.1-0.1,2.2-0.2,3.3-0.3
		c0.3-5.2,0.8-10.7,4.3-14.8c3.2-3.8,8.1-5.2,12.8-3.2c5,2.1,7.8,6.9,9.4,11.8c2,6.4,3.1,13.3,4,19.9c0.8,6,1.3,11.9,1.6,17.9
		C109.3,77.8,109.4,83.3,108.5,88.6z"/>
	<ellipse class="st2" cx="75.4" cy="42.2" rx="4.4" ry="3"/>
</g>
<g id="Layer_4">
	<circle class="st3" cx="56.5" cy="37.2" r="3.8"/>
	<circle class="st1" cx="57.9" cy="36.3" r="1.4"/>
	<circle class="st3" cx="89.7" cy="37.2" r="3.8"/>
	<circle class="st1" cx="91.1" cy="36.3" r="1.4"/>
</g>
<g id="Layer_5">
	<path class="st4" d="M43.7,40c-1.1,1.2-2.5,2.5-3.1,4c-0.4,1,1,1.5,1.6,1c0.6-0.5,1-1.3,1.5-1.9c0.5-0.7,0.9-1.4,1.2-2.1
		C45.4,40.2,44.3,39.4,43.7,40L43.7,40z"/>
	<path class="st4" d="M46.9,40.5c-1,1.2-2.1,2.4-3,3.7c-0.6,0.9,0.8,2,1.5,1.1c1-1.2,1.9-2.6,2.8-3.9C48.6,40.7,47.5,39.8,46.9,40.5
		L46.9,40.5z"/>
	<path class="st4" d="M99.9,41.5c-1.5,0.8-3.1,2.3-3.7,3.9c-0.3,0.9,1.1,1.8,1.7,1c0.5-0.6,0.8-1.3,1.4-1.9c0.5-0.6,1.1-1.1,1.7-1.7
		C101.6,42.1,100.7,41.1,99.9,41.5L99.9,41.5z"/>
	<path class="st4" d="M102.5,42.6c-1.1,1.2-2.3,2.3-3.3,3.6c-0.8,0.9,0.5,2.3,1.4,1.4c1.1-1.2,2.1-2.5,3.1-3.8
		C104.2,43,103.2,41.9,102.5,42.6L102.5,42.6z"/>
</g>
</svg>
