<?xml version="1.0" encoding="utf-8"?>
<!-- Generator: Adobe Illustrator 26.0.2, SVG Export Plug-In . SVG Version: 6.00 Build 0)  -->
<svg version="1.1" id="Layer_1" xmlns="http://www.w3.org/2000/svg" xmlns:xlink="http://www.w3.org/1999/xlink" x="0px" y="0px"
	 viewBox="0 0 128 128" style="enable-background:new 0 0 128 128;" xml:space="preserve">
<style type="text/css">
	.st0{fill:#C63900;}
	.st1{fill:#FA743E;}
	.st2{fill:#FFDC5D;}
	.st3{fill:#F9CA55;}
	.st4{fill:#D1D3D4;}
	.st5{fill:#C1694F;}
	.st6{fill:#662113;}
	.st7{fill:#D99E82;}
	.st8{fill:#55ACEE;}
	.st9{fill:#B0F0FF;}
</style>
<ellipse class="st0" cx="67" cy="77.2" rx="44.8" ry="10.6"/>
<path class="st1" d="M91.8,104.8H43.9c-7.4,0-14.2,4.3-17.3,10.4c-1.2-1.3-2.7-1.9-4.5-1.9c-3.2,0-6,2.8-6,6v8.7h92.8v-5.8
	C108.9,112.6,101.7,104.8,91.8,104.8z"/>
<path class="st2" d="M55.1,95.1v9.6l0,0c0.4,0.7,11.2,20.1,11.9,20.1c0.7,0,11.5-19.5,11.9-20.1l0,0v-9.6
	C79,95.1,55.1,95.1,55.1,95.1z"/>
<path class="st3" d="M55.1,102.9c3.4,3.8,7.4,4.8,11.9,4.8s8.6-1,11.9-4.8v-9.5H55.1V102.9z"/>
<path class="st4" d="M67,60.8c-7.9,0-17,9.5-27.2,11.6c0.4,4.5,1.8,7.9,2.4,12.4c1,7.4,5.1,9.7,8.5,10.8c4.8,6.3,9.8,6.1,18.4,6.1
	c16.4,0,24.4-10.8,25.4-29.1C84,70.4,74.8,60.8,67,60.8z"/>
<path class="st2" d="M85.9,72.3c-1.6-2.2-3.7-4.1-8.2-4.7c1.7,0.7,3.4,3.5,3.6,4.9c0.2,1.5,0.4,2.7-0.9,1.3
	c-5.4-6-11.3-3.7-17.1-7.2c-4.1-2.5-5.3-5.3-5.3-5.3s-0.5,3.8-6.7,7.5c-1.8,1.2-3.9,3.6-5.1,7.2c-0.8,2.6-0.6,4.9-0.6,9
	c0,11.6,9.6,21.5,21.5,21.5s21.5-9.8,21.5-21.5C88.5,77.7,87.8,74.9,85.9,72.3z"/>
<path class="st5" d="M69.4,90.9h-4.8c-0.6,0-1.2-0.5-1.2-1.2c0-0.6,0.5-1.2,1.2-1.2h4.8c0.6,0,1.2,0.5,1.2,1.2
	C70.6,90.4,70.1,90.9,69.4,90.9z"/>
<path class="st6" d="M57.5,82.5c-1.4,0-2.4-1-2.4-2.4v-2.4c0-1.4,1-2.4,2.4-2.4c1.4,0,2.4,1,2.4,2.4v2.4
	C59.9,81.5,58.8,82.5,57.5,82.5z M76.6,82.5c-1.4,0-2.4-1-2.4-2.4v-2.4c0-1.4,1-2.4,2.4-2.4c1.4,0,2.4,1,2.4,2.4v2.4
	C79,81.5,77.9,82.5,76.6,82.5z"/>
<path class="st5" d="M67,99.5c-7,0-9.2-1.8-9.6-2.2c-0.6-0.6-0.6-1.7,0-2.4c0.6-0.6,1.7-0.6,2.3-0.1c0.1,0.1,1.9,1.3,7.2,1.3
	c5.7,0,7.2-1.3,7.3-1.3c0.6-0.6,1.7-0.6,2.3,0c0.6,0.6,0.6,1.8,0,2.4C76.3,97.6,74.1,99.5,67,99.5"/>
<path class="st1" d="M90.3,65.7C86.6,57.6,69.4,20.3,67,20.3S47.4,57.6,43.8,65.7C29.3,68.2,22.1,73,22.1,77.2
	c17.9-6,32.9-7.3,44.8-7.3s26.9,1.4,44.8,7.3C111.9,72.9,104.8,68.2,90.3,65.7z"/>
<path class="st7" d="M28.2,128h-6V55.8l-3-11.5h11.9l-3,11.5V128H28.2z"/>
<circle class="st8" cx="25.1" cy="38.2" r="9"/>
<circle class="st9" cx="23.7" cy="36.7" r="4.5"/>
<path class="st2" d="M34.1,111.6c0,5.8-4,10.5-9,10.5s-9-4.7-9-10.5c0-5.8,4-7.4,9-7.4S34.1,105.8,34.1,111.6z"/>
</svg>
